<?xml version="1.0" encoding="utf-8"?>
<!-- Generator: Adobe Illustrator 27.6.1, SVG Export Plug-In . SVG Version: 6.00 Build 0)  -->
<svg version="1.1" id="Layer_1" xmlns="http://www.w3.org/2000/svg" xmlns:xlink="http://www.w3.org/1999/xlink" x="0px" y="0px"
	 viewBox="0 0 791.3 252.9" style="enable-background:new 0 0 791.3 252.9;" xml:space="preserve">
<style type="text/css">
	.st0{fill:url(#SVGID_1_);}
	.st1{fill-rule:evenodd;clip-rule:evenodd;fill:#4F72EA;}
	.st2{fill:url(#SVGID_00000180368866127177887400000014679696266302610591_);}
	.st3{fill:#FAFBFF;}
	.st4{fill-rule:evenodd;clip-rule:evenodd;fill:#FAFBFF;}
</style>
<g>
	<g>
		<g>
			
				<linearGradient id="SVGID_1_" gradientUnits="userSpaceOnUse" x1="130.6471" y1="-804.7806" x2="-21.2266" y2="-975.7877" gradientTransform="matrix(1 0 0 -1 0 -696.8239)">
				<stop  offset="0" style="stop-color:#5378F8"/>
				<stop  offset="1" style="stop-color:#314792"/>
			</linearGradient>
			<path class="st0" d="M45.2,178.5c1.2,0,2.4,0.8,2.8,2c1.6,4.2,5.2,14.3,7.1,20c1,3,4.2,6.1,7.1,7.1c10.7,3.6,19.4-6.3,16.1-15.9
				l-25.8-72.2C32,62,74.8,1.3,135.8,1.3h125.7c1.8,0,3.2,1.6,2.8,3.4l-14.3,91c-7.3,47.4-48.2,82.3-96,82.3h-8
				c-1.2,0-2.4-0.8-2.8-1.8l-13.9-37.7c-0.6-2.2,0.8-4.2,2.8-4.2h22.2c26.4,0,49-19.2,52.9-45.4l6.3-40.8c0.2-1.8-1-3.4-2.8-3.4
				h-74.9c-31.1,0-52.7,30.7-42.4,60.1l25.8,72.2c14.1,39.7-19.2,81.5-63.2,73.8c-19.4-3.4-35.3-17.4-42-36.1L2.4,182.5
				c-0.6-1.8,0.8-3.8,2.8-3.8L45.2,178.5z"/>
		</g>
		<path class="st1" d="M121.2,110.3c0.4,1.4,1.8,2.4,3.4,2.4h27.8c2.2,0,3.6-2,3.2-4L150,87.9c-2.4-8.7-10.5-15.1-19.4-14.1
			c-11.1,1-17.4,11.5-14.1,21.4L121.2,110.3z"/>
		
			<linearGradient id="SVGID_00000091725809615632984830000018240615684937172363_" gradientUnits="userSpaceOnUse" x1="154.3" y1="-874.8239" x2="154.3" y2="-874.8239" gradientTransform="matrix(1 0 0 -1 0 -696.8239)">
			<stop  offset="0" style="stop-color:#5378F8"/>
			<stop  offset="1" style="stop-color:#314792"/>
		</linearGradient>
		<path style="fill:url(#SVGID_00000091725809615632984830000018240615684937172363_);" d="M154.3,178"/>
	</g>
	<g>
		<g>
			<path class="st3" d="M653,56.9c-9.3-12.3-23.1-18.6-41.1-18.6s-31.7,6.3-41.1,18.6c-9.2,12.3-13.9,30.5-13.9,54.1
				s4.7,41.9,13.9,54.1c9.3,12.4,23.2,18.6,41.1,18.6s31.7-6.3,41.1-18.6c9.2-12.3,13.9-30.5,13.9-54.1S662.3,69.2,653,56.9z
				 M635.3,111c0,14.8-2,26-5.9,33.2c-1.9,3.5-4.2,6.1-7.2,7.9c-2.9,1.7-6.4,2.6-10.3,2.6c-3.9,0-7.4-0.9-10.3-2.6
				c-2.9-1.7-5.3-4.4-7.2-7.9c-3.9-7.1-5.9-18.3-5.9-33.2l0,0c0-14.8,2-26,5.9-33.2c1.9-3.5,4.2-6.1,7.2-7.9
				c2.9-1.7,6.4-2.6,10.3-2.6c3.9,0,7.4,0.9,10.3,2.6c2.9,1.7,5.3,4.4,7.2,7.9C633.3,84.9,635.3,96,635.3,111L635.3,111z"/>
			<path class="st3" d="M785.6,101.7c3.1-5.2,4.6-10.7,4.6-16.6v-4.6c0-5.6-1.1-10.8-3.1-15.4c-1.9-4.8-4.9-9.1-8.7-12.6
				c-3.8-3.8-8.5-6.7-14-8.6c-5.5-2-12-3-19.2-3h-59.4v139.6h31v-50.6h31.5c3.4,0,4.9,1,5.6,1.8c1.2,1.5,1.8,3.4,1.8,5.6v43h31
				v-49.2c0-5.3-1.6-9.5-4.8-13c-2-2.2-4.3-3.8-7.1-4.9l-1.4-0.6l1.3-0.8C779.4,109.1,783.2,105.7,785.6,101.7L785.6,101.7z
				 M759.3,86.4c0,4.4-1.3,7.8-3.9,10.1c-2.7,2.3-6.8,3.5-12,3.5h-26.6V70.5h26.6c5.4,0,9.4,1.3,12,4.1c2.6,2.6,3.9,5.8,3.9,9.5
				V86.4z"/>
			<path class="st3" d="M541.9,67.3c-1.9-5.1-4.5-9.5-8.2-13.4c-3.7-4-8.1-7.1-13.6-9.5c-5.4-2.4-11.9-3.7-19.2-3.7h-60.8v139.8h31
				v-50.6h29.8c7.3,0,13.8-1.2,19.2-3.7c5.6-2.6,10.1-5.8,13.6-9.7c3.8-4.2,6.6-8.9,8.2-13.7c1.9-5.4,2.8-10.5,2.8-15.7v-4.6
				C544.7,77.4,543.8,72.3,541.9,67.3L541.9,67.3z M513.9,86.5c0,4.1-1.3,7.3-4.1,9.8c-2.5,2.5-6.3,3.8-11.3,3.8h-27.3V70.6h27.3
				c4.9,0,8.6,1.3,11.3,3.8c2.7,2.6,4.1,5.8,4.1,9.8V86.5L513.9,86.5z"/>
			<path class="st4" d="M409.5,108.2l-0.3-0.2v-0.1c-8.5-6.6-18.9-10.8-32.8-13.2c-5.3-0.9-10-2-13.9-3.2c-3.5-1.1-6.2-2.3-8.3-3.5
				c-1.8-1.2-3-2.5-3.7-3.8c-0.7-1.6-1.1-3.2-1.1-5.1c0-3.5,1.4-6.2,4.4-8.2c3.3-2.3,8-3.5,13.7-3.5c7,0,12.2,1.7,15.8,5.2
				c3.1,2.9,4.8,6.1,5.3,9.8h31.9v-0.1c0-5.8-1.2-11.5-3.6-16.7c-2.3-5.4-5.7-10.1-10.3-14.2c-4.5-4.1-10-7.2-16.6-9.5
				c-6.6-2.4-14.2-3.6-22.5-3.6c-7.5,0-14.4,1-20.4,3c-5.9,2-10,4.8-14.7,8.6c-4.3,3.7-7.8,8.1-10.2,13.2
				c-2.4,5.1-3.6,10.5-3.6,16.4v1.1c0,7.2,1.3,13.1,3.9,18.1s6.2,9.2,10.7,12.5c4.6,3.3,8.9,5.9,14.8,7.9c6.1,1.9,12.6,3.4,19.3,4.5
				c5.3,0.9,9.4,1.9,12.4,3.1c3.1,1.2,5.3,2.3,6.9,3.7h0.1l0.2,0.2c1.6,1.3,2.5,2.6,3.2,4.1c0.6,1.8,0.9,3.5,0.9,5.1
				c0,3.7-1.6,6.9-4.8,9.8c-3.2,2.8-8.4,4.3-15.4,4.3c-9.2,0-16-2.1-20.2-6.3c-3.6-3.7-5.7-8.8-6.1-15.2h-31.8
				c0.1,7.1,1.3,13.5,3.7,19.6c2.5,6.3,6.2,11.8,11,16.5c4.9,4.7,10.9,8.3,18,10.9s15.3,3.8,24.8,3.8c8.1,0,15.2-1,21.7-3
				c5.9-1.9,10.4-4.4,15.6-8.8c4.7-3.9,8.2-8.5,10.6-13.8c2.5-5.6,3.8-11.7,3.8-18.2v-2.3C421.9,124.4,417.7,114.7,409.5,108.2z"/>
			<polygon class="st3" points="665.3,194.2 633.9,129.9 604.3,129.9 634.5,194.2 			"/>
		</g>
	</g>
</g>
</svg>
