<?xml version="1.0" encoding="utf-8"?>
<!-- Generator: Adobe Illustrator 27.6.1, SVG Export Plug-In . SVG Version: 6.00 Build 0)  -->
<svg version="1.1" id="Layer_1" xmlns="http://www.w3.org/2000/svg" xmlns:xlink="http://www.w3.org/1999/xlink" x="0px" y="0px"
	 viewBox="0 0 133 127" style="enable-background:new 0 0 133 127;" xml:space="preserve">
<style type="text/css">
	.st0{fill:url(#SVGID_1_);}
	.st1{fill-rule:evenodd;clip-rule:evenodd;fill:#4F72EA;}
	.st2{fill:url(#SVGID_00000044148287046295892290000009092240196769415102_);}
</style>
<g>
	<g>
		
			<linearGradient id="SVGID_1_" gradientUnits="userSpaceOnUse" x1="65.1429" y1="75.0127" x2="-11.4589" y2="-11.2396" gradientTransform="matrix(1 0 0 -1 0 129.1761)">
			<stop  offset="0" style="stop-color:#5378F8"/>
			<stop  offset="1" style="stop-color:#314792"/>
		</linearGradient>
		<path class="st0" d="M22.1,89.8c0.6,0,1.2,0.4,1.4,1c0.8,2.1,2.6,7.2,3.6,10.1c0.5,1.5,2.1,3.1,3.6,3.6c5.4,1.8,9.8-3.2,8.1-8
			l-13-36.4C15.4,31,37,0.4,67.8,0.4h63.4c0.9,0,1.6,0.8,1.4,1.7L125.4,48c-3.7,23.9-24.3,41.5-48.4,41.5h-4.1
			c-0.6,0-1.2-0.4-1.4-0.9l-7-19c-0.3-1.1,0.4-2.1,1.4-2.1h11.2c13.3,0,24.7-9.7,26.7-22.9L107,24c0.1-0.9-0.5-1.7-1.4-1.7H67.8
			c-15.7,0-26.6,15.5-21.4,30.3l13,36.4c7.1,20-9.7,41.1-31.9,37.2c-9.8-1.7-17.8-8.8-21.2-18.2L0.5,91.8c-0.3-0.9,0.4-1.9,1.4-1.9
			L22.1,89.8z"/>
	</g>
	<path class="st1" d="M60.4,55.4c0.2,0.7,0.9,1.2,1.7,1.2h14c1.1,0,1.8-1,1.6-2l-2.8-10.5c-1.2-4.4-5.3-7.6-9.8-7.1
		c-5.6,0.5-8.8,5.8-7.1,10.8L60.4,55.4z"/>
	
		<linearGradient id="SVGID_00000099662947725756363490000003244942509189350334_" gradientUnits="userSpaceOnUse" x1="77.0679" y1="39.7109" x2="77.0679" y2="39.7109" gradientTransform="matrix(1 0 0 -1 0 129.1761)">
		<stop  offset="0" style="stop-color:#5378F8"/>
		<stop  offset="1" style="stop-color:#314792"/>
	</linearGradient>
	<path style="fill:url(#SVGID_00000099662947725756363490000003244942509189350334_);" d="M77.1,89.5"/>
</g>
</svg>
