<?xml version="1.0" standalone="no"?>
<!DOCTYPE svg PUBLIC "-//W3C//DTD SVG 20010904//EN"
 "http://www.w3.org/TR/2001/REC-SVG-20010904/DTD/svg10.dtd">
<svg version="1.0" xmlns="http://www.w3.org/2000/svg"
 width="160.000000pt" height="160.000000pt" viewBox="0 0 160.000000 160.000000"
 preserveAspectRatio="xMidYMid meet">

<g transform="translate(0.000000,160.000000) scale(0.100000,-0.100000)"
fill="#000000" stroke="none">
<path d="M675 1306 c-114 -27 -209 -97 -250 -181 -23 -49 -31 -155 -15 -214
26 -99 133 -169 330 -216 182 -44 224 -70 222 -138 -2 -59 -64 -97 -162 -97
-33 0 -75 6 -93 14 -41 17 -83 66 -92 106 l-7 30 -119 0 -119 0 0 -29 c0 -57
39 -157 79 -202 83 -94 206 -134 391 -126 130 5 202 27 272 80 123 95 144 296
43 414 -48 57 -135 99 -282 137 -140 36 -187 56 -203 85 -26 49 0 110 57 132
13 5 50 9 81 9 86 0 134 -32 156 -103 5 -16 18 -17 123 -15 l118 3 -3 40 c-9
96 -90 203 -185 244 -95 41 -239 52 -342 27z"/>
</g>
</svg>
